<svg width="52" height="51" viewBox="0 0 52 51" fill="none" xmlns="http://www.w3.org/2000/svg">
<path d="M42.3266 42.8488L28.7607 29.5888C27.684 30.4308 26.4459 31.0973 25.0462 31.5884C23.6466 32.0795 22.1572 32.325 20.5781 32.325C16.6662 32.325 13.3559 31.0011 10.647 28.3534C7.9367 25.7042 6.58154 22.4677 6.58154 18.6441C6.58154 14.8204 7.9367 11.584 10.647 8.93482C13.3559 6.28703 16.6662 4.96313 20.5781 4.96313C24.4899 4.96313 27.801 6.28703 30.5113 8.93482C33.2202 11.584 34.5746 14.8204 34.5746 18.6441C34.5746 20.1876 34.3234 21.6434 33.821 23.0115C33.3185 24.3796 32.6366 25.5898 31.7753 26.6422L45.3412 39.9022L42.3266 42.8488ZM20.5781 28.1155C23.2697 28.1155 25.558 27.195 27.4429 25.3541C29.3263 23.5117 30.268 21.275 30.268 18.6441C30.268 16.0131 29.3263 13.7765 27.4429 11.9341C25.558 10.0931 23.2697 9.17266 20.5781 9.17266C17.8864 9.17266 15.5982 10.0931 13.7133 11.9341C11.8299 13.7765 10.8882 16.0131 10.8882 18.6441C10.8882 21.275 11.8299 23.5117 13.7133 25.3541C15.5982 27.195 17.8864 28.1155 20.5781 28.1155Z" fill="#A7AAAB"/>
</svg>
